solid OpenSCAD_Model
  facet normal 0 0 -1
    outer loop
      vertex -23.9 -4.3625 0
      vertex -23.9 1.9875 0
      vertex -23.781 -4.3625 0
    endloop
  endfacet
  facet normal 0 0 -1
    outer loop
      vertex -23.781 -4.3625 0
      vertex -23.9 1.9875 0
      vertex -23.4 1.9875 0
    endloop
  endfacet
  facet normal 0 0 -1
    outer loop
      vertex -23.4 1.9875 0
      vertex -23.4 2 0
      vertex -5.64591 2 0
    endloop
  endfacet
  facet normal 0 0 -1
    outer loop
      vertex -21.9 -4.1875 0
      vertex -23.781 -4.3625 0
      vertex -21.9 0 0
    endloop
  endfacet
  facet normal 0 0 -1
    outer loop
      vertex -5.34604 2.72394 0
      vertex -4.8541 3.52671 0
      vertex -5.64591 2 0
    endloop
  endfacet
  facet normal 0 0 -1
    outer loop
      vertex -5.64591 2 0
      vertex -4.8541 3.52671 0
      vertex -4.24264 4.24264 0
    endloop
  endfacet
  facet normal 0 0 -1
    outer loop
      vertex -5.64591 2 0
      vertex -4.24264 4.24264 0
      vertex -3.52671 4.8541 0
    endloop
  endfacet
  facet normal 0 0 -1
    outer loop
      vertex -5.64591 2 0
      vertex -3.52671 4.8541 0
      vertex -2.72394 5.34604 0
    endloop
  endfacet
  facet normal 0 0 -1
    outer loop
      vertex -5.64591 2 0
      vertex -2.72394 5.34604 0
      vertex -1.8541 5.70634 0
    endloop
  endfacet
  facet normal 0 0 -1
    outer loop
      vertex -5.64591 2 0
      vertex -1.8541 5.70634 0
      vertex -0.938607 5.92613 0
    endloop
  endfacet
  facet normal 0 0 -1
    outer loop
      vertex -5.64591 2 0
      vertex -0.938607 5.92613 0
      vertex 3.67382e-016 6 0
    endloop
  endfacet
  facet normal 0 0 -1
    outer loop
      vertex -5.64591 2 0
      vertex 3.67382e-016 6 0
      vertex 0.938607 5.92613 0
    endloop
  endfacet
  facet normal 0 0 -1
    outer loop
      vertex -5.64591 2 0
      vertex 0.938607 5.92613 0
      vertex 1.8541 5.70634 0
    endloop
  endfacet
  facet normal 0 0 -1
    outer loop
      vertex -1.23607 3.80423 0
      vertex 1.8541 5.70634 0
      vertex 2.72394 5.34604 0
    endloop
  endfacet
  facet normal 0 0 -1
    outer loop
      vertex 2.44921e-016 4 0
      vertex 2.72394 5.34604 0
      vertex 3.52671 4.8541 0
    endloop
  endfacet
  facet normal 0 0 -1
    outer loop
      vertex 2.44921e-016 4 0
      vertex 3.52671 4.8541 0
      vertex 0.625738 3.95075 0
    endloop
  endfacet
  facet normal 0 0 -1
    outer loop
      vertex 1.81596 3.56403 0
      vertex 3.52671 4.8541 0
      vertex 4.24264 4.24264 0
    endloop
  endfacet
  facet normal 0 0 -1
    outer loop
      vertex 2.35114 3.23607 0
      vertex 4.24264 4.24264 0
      vertex 4.8541 3.52671 0
    endloop
  endfacet
  facet normal 0 0 -1
    outer loop
      vertex 3.23607 2.35114 0
      vertex 4.8541 3.52671 0
      vertex 5.34604 2.72394 0
    endloop
  endfacet
  facet normal 0 0 -1
    outer loop
      vertex 3.56403 1.81596 0
      vertex 5.34604 2.72394 0
      vertex 5.64591 2 0
    endloop
  endfacet
  facet normal 0 0 -1
    outer loop
      vertex 6 0 0
      vertex 5.64591 2 0
      vertex 23.4 2 0
    endloop
  endfacet
  facet normal 0 0 -1
    outer loop
      vertex 23.781 -4.3625 0
      vertex 23.9 1.9875 0
      vertex 23.9 -4.3625 0
    endloop
  endfacet
  facet normal 0 0 -1
    outer loop
      vertex 21.9 -4.1875 0
      vertex 23.9 1.9875 0
      vertex 23.781 -4.3625 0
    endloop
  endfacet
  facet normal 0 0 -1
    outer loop
      vertex 20.4179 -4.1875 0
      vertex 23.781 -4.3625 0
      vertex 22.15 -7.1875 0
    endloop
  endfacet
  facet normal 0 0 -1
    outer loop
      vertex 6 0 0
      vertex 23.4 2 0
      vertex 23.4 1.9875 0
    endloop
  endfacet
  facet normal 0 0 -1
    outer loop
      vertex 21.9 0 0
      vertex 23.9 1.9875 0
      vertex 21.9 -4.1875 0
    endloop
  endfacet
  facet normal 0 0 -1
    outer loop
      vertex 6 0 0
      vertex 23.4 1.9875 0
      vertex 23.9 1.9875 0
    endloop
  endfacet
  facet normal 0 0 -1
    outer loop
      vertex 20.4179 -4.1875 0
      vertex 21.9 -4.1875 0
      vertex 23.781 -4.3625 0
    endloop
  endfacet
  facet normal 0 0 -1
    outer loop
      vertex 4 0 0
      vertex 5.64591 2 0
      vertex 6 0 0
    endloop
  endfacet
  facet normal 0 0 -1
    outer loop
      vertex 3.56403 1.81596 0
      vertex 5.64591 2 0
      vertex 3.80423 1.23607 0
    endloop
  endfacet
  facet normal 0 0 -1
    outer loop
      vertex 3.95075 0.625738 0
      vertex 5.64591 2 0
      vertex 4 0 0
    endloop
  endfacet
  facet normal 0 0 -1
    outer loop
      vertex 3.80423 1.23607 0
      vertex 5.64591 2 0
      vertex 3.95075 0.625738 0
    endloop
  endfacet
  facet normal 0 0 -1
    outer loop
      vertex 3.23607 2.35114 0
      vertex 5.34604 2.72394 0
      vertex 3.56403 1.81596 0
    endloop
  endfacet
  facet normal 0 0 -1
    outer loop
      vertex 2.82843 2.82843 0
      vertex 4.8541 3.52671 0
      vertex 3.23607 2.35114 0
    endloop
  endfacet
  facet normal 0 0 -1
    outer loop
      vertex 2.35114 3.23607 0
      vertex 4.8541 3.52671 0
      vertex 2.82843 2.82843 0
    endloop
  endfacet
  facet normal 0 0 -1
    outer loop
      vertex 1.81596 3.56403 0
      vertex 4.24264 4.24264 0
      vertex 2.35114 3.23607 0
    endloop
  endfacet
  facet normal 0 0 -1
    outer loop
      vertex 1.23607 3.80423 0
      vertex 3.52671 4.8541 0
      vertex 1.81596 3.56403 0
    endloop
  endfacet
  facet normal 0 0 -1
    outer loop
      vertex 0.625738 3.95075 0
      vertex 3.52671 4.8541 0
      vertex 1.23607 3.80423 0
    endloop
  endfacet
  facet normal 0 0 -1
    outer loop
      vertex -0.625738 3.95075 0
      vertex 2.72394 5.34604 0
      vertex 2.44921e-016 4 0
    endloop
  endfacet
  facet normal 0 0 -1
    outer loop
      vertex -1.23607 3.80423 0
      vertex 2.72394 5.34604 0
      vertex -0.625738 3.95075 0
    endloop
  endfacet
  facet normal 0 0 -1
    outer loop
      vertex -5.64591 2 0
      vertex 1.8541 5.70634 0
      vertex -1.23607 3.80423 0
    endloop
  endfacet
  facet normal 0 0 -1
    outer loop
      vertex -2.35114 3.23607 0
      vertex -5.64591 2 0
      vertex -1.81596 3.56403 0
    endloop
  endfacet
  facet normal 0 0 -1
    outer loop
      vertex -5.64591 2 0
      vertex -1.23607 3.80423 0
      vertex -1.81596 3.56403 0
    endloop
  endfacet
  facet normal 0 0 -1
    outer loop
      vertex -2.82843 2.82843 0
      vertex -5.64591 2 0
      vertex -2.35114 3.23607 0
    endloop
  endfacet
  facet normal 0 0 -1
    outer loop
      vertex -4 4.89843e-016 0
      vertex -6 0 0
      vertex -3.95075 0.625738 0
    endloop
  endfacet
  facet normal 0 0 -1
    outer loop
      vertex -5.64591 2 0
      vertex -2.82843 2.82843 0
      vertex -3.23607 2.35114 0
    endloop
  endfacet
  facet normal 0 0 -1
    outer loop
      vertex -21.9 0 0
      vertex -3.80423 1.23607 0
      vertex -3.95075 0.625738 0
    endloop
  endfacet
  facet normal 0 0 -1
    outer loop
      vertex -6 0 0
      vertex -4 4.89843e-016 0
      vertex -4 0 0
    endloop
  endfacet
  facet normal 0 0 -1
    outer loop
      vertex -5.64591 2 0
      vertex -3.23607 2.35114 0
      vertex -3.56403 1.81596 0
    endloop
  endfacet
  facet normal 0 0 -1
    outer loop
      vertex -21.9 0 0
      vertex -5.64591 2 0
      vertex -3.56403 1.81596 0
    endloop
  endfacet
  facet normal 0 0 -1
    outer loop
      vertex -21.9 0 0
      vertex -3.56403 1.81596 0
      vertex -3.80423 1.23607 0
    endloop
  endfacet
  facet normal 0 0 -1
    outer loop
      vertex -23.4 1.9875 0
      vertex -5.64591 2 0
      vertex -21.9 0 0
    endloop
  endfacet
  facet normal 0 0 -1
    outer loop
      vertex -23.4 1.9875 0
      vertex -21.9 0 0
      vertex -23.781 -4.3625 0
    endloop
  endfacet
  facet normal 0 0 -1
    outer loop
      vertex -22.15 -7.1875 0
      vertex -23.781 -4.3625 0
      vertex -20.4179 -4.1875 0
    endloop
  endfacet
  facet normal 0 0 -1
    outer loop
      vertex -23.781 -4.3625 0
      vertex -21.9 -4.1875 0
      vertex -20.4179 -4.1875 0
    endloop
  endfacet
  facet normal 0 0 -1
    outer loop
      vertex 6 0 0
      vertex 23.9 1.9875 0
      vertex 21.9 0 0
    endloop
  endfacet
  facet normal 0 0 -1
    outer loop
      vertex -21.9 0 0
      vertex -3.95075 0.625738 0
      vertex -6 0 0
    endloop
  endfacet
  facet normal -1 0 0
    outer loop
      vertex -23.9 -4.3625 0
      vertex -23.9 -4.3625 2
      vertex -23.9 1.9875 0
    endloop
  endfacet
  facet normal -1 0 0
    outer loop
      vertex -23.9 1.9875 0
      vertex -23.9 -4.3625 2
      vertex -23.9 1.9875 2
    endloop
  endfacet
  facet normal 0 -1 0
    outer loop
      vertex -23.9 -4.3625 2
      vertex -23.9 -4.3625 0
      vertex -23.781 -4.3625 0
    endloop
  endfacet
  facet normal 0 -1 0
    outer loop
      vertex -23.781 -4.3625 2
      vertex -23.9 -4.3625 2
      vertex -23.781 -4.3625 0
    endloop
  endfacet
  facet normal -0.866025 -0.5 0
    outer loop
      vertex -23.781 -4.3625 0
      vertex -22.15 -7.1875 0
      vertex -23.781 -4.3625 2
    endloop
  endfacet
  facet normal -0.866025 -0.5 0
    outer loop
      vertex -23.781 -4.3625 2
      vertex -22.15 -7.1875 0
      vertex -22.15 -7.1875 2
    endloop
  endfacet
  facet normal 0.866025 -0.5 0
    outer loop
      vertex -22.15 -7.1875 2
      vertex -22.15 -7.1875 0
      vertex -20.4179 -4.1875 0
    endloop
  endfacet
  facet normal 0.866025 -0.5 0
    outer loop
      vertex -20.4179 -4.1875 2
      vertex -22.15 -7.1875 2
      vertex -20.4179 -4.1875 0
    endloop
  endfacet
  facet normal 0 1 0
    outer loop
      vertex -21.9 -4.1875 0
      vertex -21.9 -4.1875 2
      vertex -20.4179 -4.1875 0
    endloop
  endfacet
  facet normal 0 1 0
    outer loop
      vertex -20.4179 -4.1875 0
      vertex -21.9 -4.1875 2
      vertex -20.4179 -4.1875 2
    endloop
  endfacet
  facet normal 1 0 0
    outer loop
      vertex -21.9 -4.1875 2
      vertex -21.9 -4.1875 0
      vertex -21.9 0 0
    endloop
  endfacet
  facet normal 1 0 0
    outer loop
      vertex -21.9 0 2
      vertex -21.9 -4.1875 2
      vertex -21.9 0 0
    endloop
  endfacet
  facet normal 0 -1 0
    outer loop
      vertex -21.9 0 2
      vertex -21.9 0 0
      vertex -6 0 0
    endloop
  endfacet
  facet normal 0 -1 0
    outer loop
      vertex -6 0 2
      vertex -21.9 0 2
      vertex -6 0 0
    endloop
  endfacet
  facet normal 0 -1 0
    outer loop
      vertex -6 0 2
      vertex -6 0 0
      vertex -4 0 0
    endloop
  endfacet
  facet normal 0 -1 0
    outer loop
      vertex -4 0 2
      vertex -6 0 2
      vertex -4 0 0
    endloop
  endfacet
  facet normal 0.996917 0.0784591 0
    outer loop
      vertex -4 4.89843e-016 2
      vertex -4 0 2
      vertex -4 0 0
    endloop
  endfacet
  facet normal 0.996917 0.0784591 0
    outer loop
      vertex -4 4.89843e-016 0
      vertex -4 4.89843e-016 2
      vertex -4 0 0
    endloop
  endfacet
  facet normal 0.996917 -0.0784591 0
    outer loop
      vertex -3.95075 0.625738 0
      vertex -3.95075 0.625738 2
      vertex -4 4.89843e-016 2
    endloop
  endfacet
  facet normal 0.996917 -0.0784591 0
    outer loop
      vertex -4 4.89843e-016 0
      vertex -3.95075 0.625738 0
      vertex -4 4.89843e-016 2
    endloop
  endfacet
  facet normal 0.97237 -0.233445 0
    outer loop
      vertex -3.80423 1.23607 0
      vertex -3.80423 1.23607 2
      vertex -3.95075 0.625738 2
    endloop
  endfacet
  facet normal 0.97237 -0.233445 0
    outer loop
      vertex -3.95075 0.625738 0
      vertex -3.80423 1.23607 0
      vertex -3.95075 0.625738 2
    endloop
  endfacet
  facet normal 0.92388 -0.382683 0
    outer loop
      vertex -3.56403 1.81596 0
      vertex -3.56403 1.81596 2
      vertex -3.80423 1.23607 2
    endloop
  endfacet
  facet normal 0.92388 -0.382683 0
    outer loop
      vertex -3.80423 1.23607 0
      vertex -3.56403 1.81596 0
      vertex -3.80423 1.23607 2
    endloop
  endfacet
  facet normal 0.85264 -0.522499 0
    outer loop
      vertex -3.23607 2.35114 0
      vertex -3.23607 2.35114 2
      vertex -3.56403 1.81596 2
    endloop
  endfacet
  facet normal 0.85264 -0.522499 0
    outer loop
      vertex -3.56403 1.81596 0
      vertex -3.23607 2.35114 0
      vertex -3.56403 1.81596 2
    endloop
  endfacet
  facet normal 0.760406 -0.649448 0
    outer loop
      vertex -2.82843 2.82843 0
      vertex -2.82843 2.82843 2
      vertex -3.23607 2.35114 2
    endloop
  endfacet
  facet normal 0.760406 -0.649448 0
    outer loop
      vertex -3.23607 2.35114 0
      vertex -2.82843 2.82843 0
      vertex -3.23607 2.35114 2
    endloop
  endfacet
  facet normal 0.649448 -0.760406 0
    outer loop
      vertex -2.35114 3.23607 0
      vertex -2.35114 3.23607 2
      vertex -2.82843 2.82843 2
    endloop
  endfacet
  facet normal 0.649448 -0.760406 0
    outer loop
      vertex -2.82843 2.82843 0
      vertex -2.35114 3.23607 0
      vertex -2.82843 2.82843 2
    endloop
  endfacet
  facet normal 0.522499 -0.85264 0
    outer loop
      vertex -1.81596 3.56403 0
      vertex -1.81596 3.56403 2
      vertex -2.35114 3.23607 2
    endloop
  endfacet
  facet normal 0.522499 -0.85264 0
    outer loop
      vertex -2.35114 3.23607 0
      vertex -1.81596 3.56403 0
      vertex -2.35114 3.23607 2
    endloop
  endfacet
  facet normal 0.382683 -0.92388 0
    outer loop
      vertex -1.23607 3.80423 0
      vertex -1.23607 3.80423 2
      vertex -1.81596 3.56403 2
    endloop
  endfacet
  facet normal 0.382683 -0.92388 0
    outer loop
      vertex -1.81596 3.56403 0
      vertex -1.23607 3.80423 0
      vertex -1.81596 3.56403 2
    endloop
  endfacet
  facet normal 0.233445 -0.97237 0
    outer loop
      vertex -0.625738 3.95075 0
      vertex -0.625738 3.95075 2
      vertex -1.23607 3.80423 2
    endloop
  endfacet
  facet normal 0.233445 -0.97237 0
    outer loop
      vertex -1.23607 3.80423 0
      vertex -0.625738 3.95075 0
      vertex -1.23607 3.80423 2
    endloop
  endfacet
  facet normal 0.0784591 -0.996917 0
    outer loop
      vertex 2.44921e-016 4 0
      vertex 2.44921e-016 4 2
      vertex -0.625738 3.95075 2
    endloop
  endfacet
  facet normal 0.0784591 -0.996917 0
    outer loop
      vertex -0.625738 3.95075 0
      vertex 2.44921e-016 4 0
      vertex -0.625738 3.95075 2
    endloop
  endfacet
  facet normal -0.0784591 -0.996917 0
    outer loop
      vertex 0.625738 3.95075 0
      vertex 0.625738 3.95075 2
      vertex 2.44921e-016 4 2
    endloop
  endfacet
  facet normal -0.0784591 -0.996917 0
    outer loop
      vertex 2.44921e-016 4 0
      vertex 0.625738 3.95075 0
      vertex 2.44921e-016 4 2
    endloop
  endfacet
  facet normal -0.233445 -0.97237 0
    outer loop
      vertex 1.23607 3.80423 0
      vertex 1.23607 3.80423 2
      vertex 0.625738 3.95075 2
    endloop
  endfacet
  facet normal -0.233445 -0.97237 0
    outer loop
      vertex 0.625738 3.95075 0
      vertex 1.23607 3.80423 0
      vertex 0.625738 3.95075 2
    endloop
  endfacet
  facet normal -0.382683 -0.92388 0
    outer loop
      vertex 1.81596 3.56403 0
      vertex 1.81596 3.56403 2
      vertex 1.23607 3.80423 2
    endloop
  endfacet
  facet normal -0.382683 -0.92388 0
    outer loop
      vertex 1.23607 3.80423 0
      vertex 1.81596 3.56403 0
      vertex 1.23607 3.80423 2
    endloop
  endfacet
  facet normal -0.522499 -0.85264 0
    outer loop
      vertex 2.35114 3.23607 0
      vertex 2.35114 3.23607 2
      vertex 1.81596 3.56403 2
    endloop
  endfacet
  facet normal -0.522499 -0.85264 0
    outer loop
      vertex 1.81596 3.56403 0
      vertex 2.35114 3.23607 0
      vertex 1.81596 3.56403 2
    endloop
  endfacet
  facet normal -0.649448 -0.760406 0
    outer loop
      vertex 2.82843 2.82843 0
      vertex 2.82843 2.82843 2
      vertex 2.35114 3.23607 2
    endloop
  endfacet
  facet normal -0.649448 -0.760406 0
    outer loop
      vertex 2.35114 3.23607 0
      vertex 2.82843 2.82843 0
      vertex 2.35114 3.23607 2
    endloop
  endfacet
  facet normal -0.760406 -0.649448 0
    outer loop
      vertex 3.23607 2.35114 2
      vertex 2.82843 2.82843 2
      vertex 3.23607 2.35114 0
    endloop
  endfacet
  facet normal -0.760406 -0.649448 0
    outer loop
      vertex 3.23607 2.35114 0
      vertex 2.82843 2.82843 2
      vertex 2.82843 2.82843 0
    endloop
  endfacet
  facet normal -0.85264 -0.522499 0
    outer loop
      vertex 3.56403 1.81596 2
      vertex 3.23607 2.35114 2
      vertex 3.56403 1.81596 0
    endloop
  endfacet
  facet normal -0.85264 -0.522499 0
    outer loop
      vertex 3.56403 1.81596 0
      vertex 3.23607 2.35114 2
      vertex 3.23607 2.35114 0
    endloop
  endfacet
  facet normal -0.92388 -0.382683 0
    outer loop
      vertex 3.80423 1.23607 2
      vertex 3.56403 1.81596 2
      vertex 3.80423 1.23607 0
    endloop
  endfacet
  facet normal -0.92388 -0.382683 0
    outer loop
      vertex 3.80423 1.23607 0
      vertex 3.56403 1.81596 2
      vertex 3.56403 1.81596 0
    endloop
  endfacet
  facet normal -0.97237 -0.233445 0
    outer loop
      vertex 3.95075 0.625738 2
      vertex 3.80423 1.23607 2
      vertex 3.95075 0.625738 0
    endloop
  endfacet
  facet normal -0.97237 -0.233445 0
    outer loop
      vertex 3.95075 0.625738 0
      vertex 3.80423 1.23607 2
      vertex 3.80423 1.23607 0
    endloop
  endfacet
  facet normal -0.996917 -0.0784591 0
    outer loop
      vertex 4 0 2
      vertex 3.95075 0.625738 2
      vertex 4 0 0
    endloop
  endfacet
  facet normal -0.996917 -0.0784591 0
    outer loop
      vertex 4 0 0
      vertex 3.95075 0.625738 2
      vertex 3.95075 0.625738 0
    endloop
  endfacet
  facet normal 0 -1 0
    outer loop
      vertex 4 0 2
      vertex 4 0 0
      vertex 6 0 0
    endloop
  endfacet
  facet normal 0 -1 0
    outer loop
      vertex 6 0 2
      vertex 4 0 2
      vertex 6 0 0
    endloop
  endfacet
  facet normal 0 -1 0
    outer loop
      vertex 6 0 2
      vertex 6 0 0
      vertex 21.9 0 0
    endloop
  endfacet
  facet normal 0 -1 0
    outer loop
      vertex 21.9 0 2
      vertex 6 0 2
      vertex 21.9 0 0
    endloop
  endfacet
  facet normal -1 0 0
    outer loop
      vertex 21.9 -4.1875 0
      vertex 21.9 -4.1875 2
      vertex 21.9 0 0
    endloop
  endfacet
  facet normal -1 0 0
    outer loop
      vertex 21.9 0 0
      vertex 21.9 -4.1875 2
      vertex 21.9 0 2
    endloop
  endfacet
  facet normal 0 1 0
    outer loop
      vertex 20.4179 -4.1875 0
      vertex 20.4179 -4.1875 2
      vertex 21.9 -4.1875 0
    endloop
  endfacet
  facet normal 0 1 0
    outer loop
      vertex 21.9 -4.1875 0
      vertex 20.4179 -4.1875 2
      vertex 21.9 -4.1875 2
    endloop
  endfacet
  facet normal -0.866025 -0.5 0
    outer loop
      vertex 20.4179 -4.1875 0
      vertex 22.15 -7.1875 0
      vertex 20.4179 -4.1875 2
    endloop
  endfacet
  facet normal -0.866025 -0.5 0
    outer loop
      vertex 20.4179 -4.1875 2
      vertex 22.15 -7.1875 0
      vertex 22.15 -7.1875 2
    endloop
  endfacet
  facet normal 0.866025 -0.5 0
    outer loop
      vertex 22.15 -7.1875 2
      vertex 22.15 -7.1875 0
      vertex 23.781 -4.3625 0
    endloop
  endfacet
  facet normal 0.866025 -0.5 0
    outer loop
      vertex 23.781 -4.3625 2
      vertex 22.15 -7.1875 2
      vertex 23.781 -4.3625 0
    endloop
  endfacet
  facet normal 0 -1 0
    outer loop
      vertex 23.781 -4.3625 2
      vertex 23.781 -4.3625 0
      vertex 23.9 -4.3625 0
    endloop
  endfacet
  facet normal 0 -1 0
    outer loop
      vertex 23.9 -4.3625 2
      vertex 23.781 -4.3625 2
      vertex 23.9 -4.3625 0
    endloop
  endfacet
  facet normal 1 0 0
    outer loop
      vertex 23.9 -4.3625 2
      vertex 23.9 -4.3625 0
      vertex 23.9 1.9875 0
    endloop
  endfacet
  facet normal 1 0 0
    outer loop
      vertex 23.9 1.9875 2
      vertex 23.9 -4.3625 2
      vertex 23.9 1.9875 0
    endloop
  endfacet
  facet normal 0 1 0
    outer loop
      vertex 23.4 1.9875 0
      vertex 23.4 1.9875 2
      vertex 23.9 1.9875 0
    endloop
  endfacet
  facet normal 0 1 0
    outer loop
      vertex 23.9 1.9875 0
      vertex 23.4 1.9875 2
      vertex 23.9 1.9875 2
    endloop
  endfacet
  facet normal 1 0 0
    outer loop
      vertex 23.4 1.9875 2
      vertex 23.4 1.9875 0
      vertex 23.4 2 0
    endloop
  endfacet
  facet normal 1 0 0
    outer loop
      vertex 23.4 2 2
      vertex 23.4 1.9875 2
      vertex 23.4 2 0
    endloop
  endfacet
  facet normal 0 1 0
    outer loop
      vertex 5.64591 2 0
      vertex 5.64591 2 2
      vertex 23.4 2 0
    endloop
  endfacet
  facet normal 0 1 0
    outer loop
      vertex 23.4 2 0
      vertex 5.64591 2 2
      vertex 23.4 2 2
    endloop
  endfacet
  facet normal 0.92388 0.382683 0
    outer loop
      vertex 5.64591 2 0
      vertex 5.34604 2.72394 0
      vertex 5.34604 2.72394 2
    endloop
  endfacet
  facet normal 0.92388 0.382683 0
    outer loop
      vertex 5.64591 2 2
      vertex 5.64591 2 0
      vertex 5.34604 2.72394 2
    endloop
  endfacet
  facet normal 0.85264 0.522499 0
    outer loop
      vertex 5.34604 2.72394 0
      vertex 4.8541 3.52671 0
      vertex 4.8541 3.52671 2
    endloop
  endfacet
  facet normal 0.85264 0.522499 0
    outer loop
      vertex 5.34604 2.72394 2
      vertex 5.34604 2.72394 0
      vertex 4.8541 3.52671 2
    endloop
  endfacet
  facet normal 0.760406 0.649448 0
    outer loop
      vertex 4.8541 3.52671 0
      vertex 4.24264 4.24264 0
      vertex 4.24264 4.24264 2
    endloop
  endfacet
  facet normal 0.760406 0.649448 0
    outer loop
      vertex 4.8541 3.52671 2
      vertex 4.8541 3.52671 0
      vertex 4.24264 4.24264 2
    endloop
  endfacet
  facet normal 0.649448 0.760406 0
    outer loop
      vertex 3.52671 4.8541 0
      vertex 3.52671 4.8541 2
      vertex 4.24264 4.24264 0
    endloop
  endfacet
  facet normal 0.649448 0.760406 0
    outer loop
      vertex 4.24264 4.24264 0
      vertex 3.52671 4.8541 2
      vertex 4.24264 4.24264 2
    endloop
  endfacet
  facet normal 0.522499 0.85264 0
    outer loop
      vertex 2.72394 5.34604 0
      vertex 2.72394 5.34604 2
      vertex 3.52671 4.8541 0
    endloop
  endfacet
  facet normal 0.522499 0.85264 0
    outer loop
      vertex 3.52671 4.8541 0
      vertex 2.72394 5.34604 2
      vertex 3.52671 4.8541 2
    endloop
  endfacet
  facet normal 0.382683 0.92388 0
    outer loop
      vertex 1.8541 5.70634 0
      vertex 1.8541 5.70634 2
      vertex 2.72394 5.34604 0
    endloop
  endfacet
  facet normal 0.382683 0.92388 0
    outer loop
      vertex 2.72394 5.34604 0
      vertex 1.8541 5.70634 2
      vertex 2.72394 5.34604 2
    endloop
  endfacet
  facet normal 0.233445 0.97237 0
    outer loop
      vertex 0.938607 5.92613 0
      vertex 0.938607 5.92613 2
      vertex 1.8541 5.70634 0
    endloop
  endfacet
  facet normal 0.233445 0.97237 0
    outer loop
      vertex 1.8541 5.70634 0
      vertex 0.938607 5.92613 2
      vertex 1.8541 5.70634 2
    endloop
  endfacet
  facet normal 0.0784591 0.996917 0
    outer loop
      vertex 3.67382e-016 6 0
      vertex 3.67382e-016 6 2
      vertex 0.938607 5.92613 0
    endloop
  endfacet
  facet normal 0.0784591 0.996917 0
    outer loop
      vertex 0.938607 5.92613 0
      vertex 3.67382e-016 6 2
      vertex 0.938607 5.92613 2
    endloop
  endfacet
  facet normal -0.0784591 0.996917 0
    outer loop
      vertex -0.938607 5.92613 0
      vertex -0.938607 5.92613 2
      vertex 3.67382e-016 6 0
    endloop
  endfacet
  facet normal -0.0784591 0.996917 0
    outer loop
      vertex 3.67382e-016 6 0
      vertex -0.938607 5.92613 2
      vertex 3.67382e-016 6 2
    endloop
  endfacet
  facet normal -0.233445 0.97237 0
    outer loop
      vertex -1.8541 5.70634 0
      vertex -1.8541 5.70634 2
      vertex -0.938607 5.92613 0
    endloop
  endfacet
  facet normal -0.233445 0.97237 0
    outer loop
      vertex -0.938607 5.92613 0
      vertex -1.8541 5.70634 2
      vertex -0.938607 5.92613 2
    endloop
  endfacet
  facet normal -0.382683 0.92388 0
    outer loop
      vertex -2.72394 5.34604 0
      vertex -2.72394 5.34604 2
      vertex -1.8541 5.70634 0
    endloop
  endfacet
  facet normal -0.382683 0.92388 0
    outer loop
      vertex -1.8541 5.70634 0
      vertex -2.72394 5.34604 2
      vertex -1.8541 5.70634 2
    endloop
  endfacet
  facet normal -0.522499 0.85264 0
    outer loop
      vertex -3.52671 4.8541 0
      vertex -3.52671 4.8541 2
      vertex -2.72394 5.34604 0
    endloop
  endfacet
  facet normal -0.522499 0.85264 0
    outer loop
      vertex -2.72394 5.34604 0
      vertex -3.52671 4.8541 2
      vertex -2.72394 5.34604 2
    endloop
  endfacet
  facet normal -0.649448 0.760406 0
    outer loop
      vertex -4.24264 4.24264 0
      vertex -4.24264 4.24264 2
      vertex -3.52671 4.8541 0
    endloop
  endfacet
  facet normal -0.649448 0.760406 0
    outer loop
      vertex -3.52671 4.8541 0
      vertex -4.24264 4.24264 2
      vertex -3.52671 4.8541 2
    endloop
  endfacet
  facet normal -0.760406 0.649448 0
    outer loop
      vertex -4.8541 3.52671 0
      vertex -4.8541 3.52671 2
      vertex -4.24264 4.24264 0
    endloop
  endfacet
  facet normal -0.760406 0.649448 0
    outer loop
      vertex -4.24264 4.24264 0
      vertex -4.8541 3.52671 2
      vertex -4.24264 4.24264 2
    endloop
  endfacet
  facet normal -0.85264 0.522499 0
    outer loop
      vertex -5.34604 2.72394 0
      vertex -5.34604 2.72394 2
      vertex -4.8541 3.52671 0
    endloop
  endfacet
  facet normal -0.85264 0.522499 0
    outer loop
      vertex -4.8541 3.52671 0
      vertex -5.34604 2.72394 2
      vertex -4.8541 3.52671 2
    endloop
  endfacet
  facet normal -0.92388 0.382683 0
    outer loop
      vertex -5.64591 2 0
      vertex -5.64591 2 2
      vertex -5.34604 2.72394 0
    endloop
  endfacet
  facet normal -0.92388 0.382683 0
    outer loop
      vertex -5.34604 2.72394 0
      vertex -5.64591 2 2
      vertex -5.34604 2.72394 2
    endloop
  endfacet
  facet normal 0 1 0
    outer loop
      vertex -23.4 2 0
      vertex -23.4 2 2
      vertex -5.64591 2 0
    endloop
  endfacet
  facet normal 0 1 0
    outer loop
      vertex -5.64591 2 0
      vertex -23.4 2 2
      vertex -5.64591 2 2
    endloop
  endfacet
  facet normal -1 0 0
    outer loop
      vertex -23.4 1.9875 0
      vertex -23.4 1.9875 2
      vertex -23.4 2 0
    endloop
  endfacet
  facet normal -1 0 0
    outer loop
      vertex -23.4 2 0
      vertex -23.4 1.9875 2
      vertex -23.4 2 2
    endloop
  endfacet
  facet normal 0 1 0
    outer loop
      vertex -23.9 1.9875 0
      vertex -23.9 1.9875 2
      vertex -23.4 1.9875 0
    endloop
  endfacet
  facet normal 0 1 0
    outer loop
      vertex -23.4 1.9875 0
      vertex -23.9 1.9875 2
      vertex -23.4 1.9875 2
    endloop
  endfacet
  facet normal 0 0 1
    outer loop
      vertex -21.9 0 2
      vertex -6 0 2
      vertex -23.9 1.9875 2
    endloop
  endfacet
  facet normal 0 0 1
    outer loop
      vertex -23.9 1.9875 2
      vertex -23.9 -4.3625 2
      vertex -23.781 -4.3625 2
    endloop
  endfacet
  facet normal 0 0 1
    outer loop
      vertex -22.15 -7.1875 2
      vertex -23.9 1.9875 2
      vertex -23.781 -4.3625 2
    endloop
  endfacet
  facet normal 0 0 1
    outer loop
      vertex 20.4179 -4.1875 2
      vertex 22.15 -7.1875 2
      vertex 21.9 -4.1875 2
    endloop
  endfacet
  facet normal 0 0 1
    outer loop
      vertex 3.56403 1.81596 2
      vertex 6 0 2
      vertex 3.23607 2.35114 2
    endloop
  endfacet
  facet normal 0 0 1
    outer loop
      vertex -22.15 -7.1875 2
      vertex -21.9 -4.1875 2
      vertex -23.9 1.9875 2
    endloop
  endfacet
  facet normal 0 0 1
    outer loop
      vertex -22.15 -7.1875 2
      vertex -20.4179 -4.1875 2
      vertex -21.9 -4.1875 2
    endloop
  endfacet
  facet normal 0 0 1
    outer loop
      vertex -4 4.89843e-016 2
      vertex -3.95075 0.625738 2
      vertex -23.9 1.9875 2
    endloop
  endfacet
  facet normal 0 0 1
    outer loop
      vertex -6 0 2
      vertex -4 0 2
      vertex -23.9 1.9875 2
    endloop
  endfacet
  facet normal 0 0 1
    outer loop
      vertex -4 0 2
      vertex -4 4.89843e-016 2
      vertex -23.9 1.9875 2
    endloop
  endfacet
  facet normal 0 0 1
    outer loop
      vertex -3.95075 0.625738 2
      vertex -3.80423 1.23607 2
      vertex -23.9 1.9875 2
    endloop
  endfacet
  facet normal 0 0 1
    outer loop
      vertex -3.80423 1.23607 2
      vertex -3.56403 1.81596 2
      vertex -23.9 1.9875 2
    endloop
  endfacet
  facet normal 0 0 1
    outer loop
      vertex -5.34604 2.72394 2
      vertex -5.64591 2 2
      vertex -3.23607 2.35114 2
    endloop
  endfacet
  facet normal 0 0 1
    outer loop
      vertex -4.8541 3.52671 2
      vertex -1.81596 3.56403 2
      vertex -1.23607 3.80423 2
    endloop
  endfacet
  facet normal 0 0 1
    outer loop
      vertex 2.44921e-016 4 2
      vertex 3.52671 4.8541 2
      vertex -0.625738 3.95075 2
    endloop
  endfacet
  facet normal 0 0 1
    outer loop
      vertex 0.625738 3.95075 2
      vertex 4.24264 4.24264 2
      vertex 2.44921e-016 4 2
    endloop
  endfacet
  facet normal 0 0 1
    outer loop
      vertex -4.8541 3.52671 2
      vertex -5.34604 2.72394 2
      vertex -2.82843 2.82843 2
    endloop
  endfacet
  facet normal 0 0 1
    outer loop
      vertex -4.8541 3.52671 2
      vertex -2.82843 2.82843 2
      vertex -2.35114 3.23607 2
    endloop
  endfacet
  facet normal 0 0 1
    outer loop
      vertex 4.8541 3.52671 2
      vertex 4.24264 4.24264 2
      vertex 0.625738 3.95075 2
    endloop
  endfacet
  facet normal 0 0 1
    outer loop
      vertex 3.23607 2.35114 2
      vertex 6 0 2
      vertex 2.82843 2.82843 2
    endloop
  endfacet
  facet normal 0 0 1
    outer loop
      vertex 3.80423 1.23607 2
      vertex 6 0 2
      vertex 3.56403 1.81596 2
    endloop
  endfacet
  facet normal 0 0 1
    outer loop
      vertex 3.95075 0.625738 2
      vertex 6 0 2
      vertex 3.80423 1.23607 2
    endloop
  endfacet
  facet normal 0 0 1
    outer loop
      vertex 4 0 2
      vertex 6 0 2
      vertex 3.95075 0.625738 2
    endloop
  endfacet
  facet normal 0 0 1
    outer loop
      vertex -1.8541 5.70634 2
      vertex -2.72394 5.34604 2
      vertex 3.67382e-016 6 2
    endloop
  endfacet
  facet normal 0 0 1
    outer loop
      vertex 21.9 -4.1875 2
      vertex 22.15 -7.1875 2
      vertex 21.9 0 2
    endloop
  endfacet
  facet normal 0 0 1
    outer loop
      vertex 23.781 -4.3625 2
      vertex 23.9 -4.3625 2
      vertex 21.9 0 2
    endloop
  endfacet
  facet normal 0 0 1
    outer loop
      vertex 5.34604 2.72394 2
      vertex 1.81596 3.56403 2
      vertex 2.35114 3.23607 2
    endloop
  endfacet
  facet normal 0 0 1
    outer loop
      vertex 5.64591 2 2
      vertex 5.34604 2.72394 2
      vertex 2.82843 2.82843 2
    endloop
  endfacet
  facet normal 0 0 1
    outer loop
      vertex 22.15 -7.1875 2
      vertex 23.781 -4.3625 2
      vertex 21.9 0 2
    endloop
  endfacet
  facet normal 0 0 1
    outer loop
      vertex 23.9 -4.3625 2
      vertex 23.9 1.9875 2
      vertex 21.9 0 2
    endloop
  endfacet
  facet normal 0 0 1
    outer loop
      vertex 21.9 0 2
      vertex 23.9 1.9875 2
      vertex 23.4 1.9875 2
    endloop
  endfacet
  facet normal 0 0 1
    outer loop
      vertex 6 0 2
      vertex 5.64591 2 2
      vertex 2.82843 2.82843 2
    endloop
  endfacet
  facet normal 0 0 1
    outer loop
      vertex 6 0 2
      vertex 21.9 0 2
      vertex 5.64591 2 2
    endloop
  endfacet
  facet normal 0 0 1
    outer loop
      vertex 2.82843 2.82843 2
      vertex 5.34604 2.72394 2
      vertex 2.35114 3.23607 2
    endloop
  endfacet
  facet normal 0 0 1
    outer loop
      vertex 4.24264 4.24264 2
      vertex 3.52671 4.8541 2
      vertex 2.44921e-016 4 2
    endloop
  endfacet
  facet normal 0 0 1
    outer loop
      vertex -3.52671 4.8541 2
      vertex -4.24264 4.24264 2
      vertex 2.72394 5.34604 2
    endloop
  endfacet
  facet normal 0 0 1
    outer loop
      vertex -2.72394 5.34604 2
      vertex 1.8541 5.70634 2
      vertex 0.938607 5.92613 2
    endloop
  endfacet
  facet normal 0 0 1
    outer loop
      vertex 3.67382e-016 6 2
      vertex -0.938607 5.92613 2
      vertex -1.8541 5.70634 2
    endloop
  endfacet
  facet normal 0 0 1
    outer loop
      vertex -4.24264 4.24264 2
      vertex -4.8541 3.52671 2
      vertex -0.625738 3.95075 2
    endloop
  endfacet
  facet normal 0 0 1
    outer loop
      vertex 0.938607 5.92613 2
      vertex 3.67382e-016 6 2
      vertex -2.72394 5.34604 2
    endloop
  endfacet
  facet normal 0 0 1
    outer loop
      vertex -4.24264 4.24264 2
      vertex -0.625738 3.95075 2
      vertex 3.52671 4.8541 2
    endloop
  endfacet
  facet normal 0 0 1
    outer loop
      vertex 2.72394 5.34604 2
      vertex 1.8541 5.70634 2
      vertex -3.52671 4.8541 2
    endloop
  endfacet
  facet normal 0 0 1
    outer loop
      vertex -4.8541 3.52671 2
      vertex -2.35114 3.23607 2
      vertex -1.81596 3.56403 2
    endloop
  endfacet
  facet normal 0 0 1
    outer loop
      vertex 3.52671 4.8541 2
      vertex 2.72394 5.34604 2
      vertex -4.24264 4.24264 2
    endloop
  endfacet
  facet normal 0 0 1
    outer loop
      vertex -1.23607 3.80423 2
      vertex -0.625738 3.95075 2
      vertex -4.8541 3.52671 2
    endloop
  endfacet
  facet normal 0 0 1
    outer loop
      vertex -3.23607 2.35114 2
      vertex -2.82843 2.82843 2
      vertex -5.34604 2.72394 2
    endloop
  endfacet
  facet normal 0 0 1
    outer loop
      vertex -3.56403 1.81596 2
      vertex -3.23607 2.35114 2
      vertex -5.64591 2 2
    endloop
  endfacet
  facet normal 0 0 1
    outer loop
      vertex -23.4 2 2
      vertex -23.4 1.9875 2
      vertex -5.64591 2 2
    endloop
  endfacet
  facet normal 0 0 1
    outer loop
      vertex -3.56403 1.81596 2
      vertex -23.4 1.9875 2
      vertex -23.9 1.9875 2
    endloop
  endfacet
  facet normal 0 0 1
    outer loop
      vertex -3.56403 1.81596 2
      vertex -5.64591 2 2
      vertex -23.4 1.9875 2
    endloop
  endfacet
  facet normal 0 0 1
    outer loop
      vertex -21.9 -4.1875 2
      vertex -21.9 0 2
      vertex -23.9 1.9875 2
    endloop
  endfacet
  facet normal 0 0 1
    outer loop
      vertex 5.34604 2.72394 2
      vertex 1.23607 3.80423 2
      vertex 1.81596 3.56403 2
    endloop
  endfacet
  facet normal 0 0 1
    outer loop
      vertex 1.23607 3.80423 2
      vertex 4.8541 3.52671 2
      vertex 0.625738 3.95075 2
    endloop
  endfacet
  facet normal 0 0 1
    outer loop
      vertex 5.34604 2.72394 2
      vertex 4.8541 3.52671 2
      vertex 1.23607 3.80423 2
    endloop
  endfacet
  facet normal 0 0 1
    outer loop
      vertex -2.72394 5.34604 2
      vertex -3.52671 4.8541 2
      vertex 1.8541 5.70634 2
    endloop
  endfacet
  facet normal 0 0 1
    outer loop
      vertex 23.4 2 2
      vertex 21.9 0 2
      vertex 23.4 1.9875 2
    endloop
  endfacet
  facet normal 0 0 1
    outer loop
      vertex 23.4 2 2
      vertex 5.64591 2 2
      vertex 21.9 0 2
    endloop
  endfacet
endsolid OpenSCAD_Model
